<?xml version="1.0" encoding="UTF-8"?>
<svg version="1.1" xmlns="http://www.w3.org/2000/svg" width="1536" height="1024">
<path d="M0 0 C506.88 0 1013.76 0 1536 0 C1536 337.92 1536 675.84 1536 1024 C1029.12 1024 522.24 1024 0 1024 C0 686.08 0 348.16 0 0 Z " fill="#FDFDFD" transform="translate(0,0)"/>
<path d="M0 0 C226.05 0 452.1 0 685 0 C685 126.06 685 252.12 685 382 C458.95 382 232.9 382 0 382 C0 255.94 0 129.88 0 0 Z " fill="#AFAFB5" transform="translate(426,301)"/>
<path d="M0 0 C52.14 0 104.28 0 158 0 C158.33 19.8 158.66 39.6 159 60 C156.36 62.64 153.72 65.28 151 68 C139.73680647 83.36219794 136.18009161 100.41015172 138.72216797 119.17016602 C139.95704996 127.17032333 142.17686784 133.28933757 146.37890625 140.265625 C148 143 148 143 150 148 C100.17 148 50.34 148 -1 148 C-1 124.24 -1 100.48 -1 76 C44.54 76 90.08 76 137 76 C137 74.35 137 72.7 137 71 C91.79 71 46.58 71 0 71 C0 47.57 0 24.14 0 0 Z " fill="#FDFDFC" transform="translate(734,381)"/>
<path d="M0 0 C69.63 0 139.26 0 211 0 C211 24.09 211 48.18 211 73 C183.63667056 73.0225441 156.2733486 73.04097746 128.91001225 73.05181217 C116.20571117 73.05697587 103.50141626 73.06401997 90.79711914 73.07543945 C79.72841575 73.08538404 68.65971682 73.09185289 57.59100908 73.09408849 C51.72629172 73.09539599 45.86158713 73.09848425 39.99687386 73.10573006 C34.48371472 73.11248673 28.97057369 73.11461769 23.45741081 73.11310768 C21.42762021 73.11338417 19.39782903 73.11539138 17.36804199 73.11920547 C14.60956083 73.12413721 11.8511492 73.12300022 9.09266663 73.12025452 C8.27848033 73.12316736 7.46429402 73.1260802 6.62543541 73.12908131 C1.11412121 73.11412121 1.11412121 73.11412121 0 72 C0 48.24 0 24.48 0 0 Z " fill="#FCFCFC" transform="translate(897,304)"/>
<path d="M0 0 C69.3 0 138.6 0 210 0 C210 24.09 210 48.18 210 73 C140.7 73 71.4 73 0 73 C0 48.91 0 24.82 0 0 Z " fill="#FDFDFD" transform="translate(897,607)"/>
<path d="M0 0 C68.97 0 137.94 0 209 0 C209 24.42 209 48.84 209 74 C180.37222969 74.44180035 180.37222969 74.44180035 166.20296383 74.55279255 C158.54771059 74.61368683 150.89377965 74.69091375 143.23950195 74.82983398 C136.52847856 74.95157625 129.81918138 75.01516416 123.10700798 75.04364967 C120.54920878 75.0639423 117.9914861 75.10357199 115.43429756 75.16303062 C94.28175351 75.63520509 94.28175351 75.63520509 89.53927612 71.62515259 C87.26935444 68.8476158 85.69048869 66.14835466 84 63 C78.67828602 57.65653176 72.54524119 54.01762933 65.875 50.625 C65.21814209 50.29089111 64.56128418 49.95678223 63.88452148 49.61254883 C56.32816752 45.94620249 49.31059527 44.627007 40.9375 44.6875 C40.11113037 44.69313965 39.28476074 44.6987793 38.43334961 44.70458984 C25.74508816 44.95143842 15.11180584 47.73761649 4 54 C2.68 54.66 1.36 55.32 0 56 C0 37.52 0 19.04 0 0 Z " fill="#FDFDFD" transform="translate(898,380)"/>
<path d="M0 0 C36.63 0 73.26 0 111 0 C111 24.09 111 48.18 111 73 C83.63667056 73.0225441 56.2733486 73.04097746 28.91001225 73.05181217 C16.20571117 73.05697587 3.50141626 73.06401997 -9.20288086 73.07543945 C-20.27158425 73.08538404 -31.34028318 73.09185289 -42.40899092 73.09408849 C-48.27370828 73.09539599 -54.13841287 73.09848425 -60.00312614 73.10573006 C-65.51628528 73.11248673 -71.02942631 73.11461769 -76.54258919 73.11310768 C-78.57237979 73.11338417 -80.60217097 73.11539138 -82.63195801 73.11920547 C-85.39043917 73.12413721 -88.1488508 73.12300022 -90.90733337 73.12025452 C-91.72151967 73.12316736 -92.53570598 73.1260802 -93.37456459 73.12908131 C-98.88587879 73.11412121 -98.88587879 73.11412121 -100 72 C-100.0940067 70.03630847 -100.11743381 68.06920801 -100.11352539 66.10327148 C-100.11344986 64.84203964 -100.11337433 63.5808078 -100.11329651 62.28135681 C-100.1081891 60.89460206 -100.10297309 59.50784771 -100.09765625 58.12109375 C-100.09579201 56.71004791 -100.09436814 55.29900143 -100.09336853 53.88795471 C-100.08954379 50.16759465 -100.0797139 46.4472734 -100.06866455 42.72692871 C-100.05844948 38.93319219 -100.05387071 35.13944942 -100.04882812 31.34570312 C-100.03809158 23.89711769 -100.0210157 16.44856428 -100 9 C-99.24640701 9.41404587 -98.49281403 9.82809174 -97.71638489 10.25468445 C-96.72692368 10.79672012 -95.73746246 11.3387558 -94.71801758 11.8972168 C-93.73754959 12.43501266 -92.7570816 12.97280853 -91.74690247 13.52690125 C-88.78254624 15.1166153 -85.79582831 16.52703643 -82.6875 17.8125 C-81.74261719 18.21082031 -80.79773438 18.60914063 -79.82421875 19.01953125 C-66.21576239 23.74390545 -46.53856188 22.52696182 -33.6171875 16.39453125 C-31.56146679 15.31218191 -29.5264155 14.1888113 -27.5234375 13.01171875 C-25 12 -25 12 -22.9140625 12.625 C-17.53364476 16.49011641 -13.09967222 20.80708185 -9 26 C-7.54038656 27.20012661 -6.07974579 28.39911614 -4.60693359 29.58300781 C-2.88052766 31.10535057 -1.45775332 32.72288376 0.0234375 34.484375 C4.69673526 39.88962764 9.7517641 44.89771952 14.8125 49.9375 C15.77555913 50.90412902 16.73845081 51.8709249 17.70117188 52.83789062 C18.61060547 53.74603516 19.52003906 54.65417969 20.45703125 55.58984375 C21.28178955 56.41347412 22.10654785 57.23710449 22.95629883 58.08569336 C26.41807088 61.32828739 29.14253188 61.38897725 33.73828125 61.359375 C37.32520929 60.78943134 38.86838894 58.79773951 41 56 C42.14938555 53.70122891 42.19841264 52.24537319 42.25 49.6875 C42.27578125 48.92824219 42.3015625 48.16898438 42.328125 47.38671875 C41.5079995 41.4212821 36.72695325 37.44708012 32.64453125 33.4140625 C31.71383064 32.48404922 31.71383064 32.48404922 30.764328 31.5352478 C29.45291828 30.22685102 28.13908711 28.92087733 26.82299805 27.6171875 C24.83135153 25.64367984 22.84770672 23.66240633 20.86523438 21.6796875 C12.4314938 13.23216396 12.4314938 13.23216396 3.42456055 5.40771484 C2 4 2 4 0 0 Z " fill="#FCFCFC" transform="translate(996,532)"/>
<path d="M0 0 C53.13 0 106.26 0 161 0 C161 24.09 161 48.18 161 73 C107.87 73 54.74 73 0 73 C0 48.91 0 24.82 0 0 Z " fill="#FDFDFD" transform="translate(733,607)"/>
<path d="M0 0 C38.62821924 -0.24181821 38.62821924 -0.24181821 54.8046875 -0.29296875 C65.97803249 -0.32858274 77.15110617 -0.37046907 88.32421875 -0.45263672 C96.46126822 -0.51244846 104.59809779 -0.55115142 112.73536098 -0.56453097 C117.04393478 -0.57235183 121.35187949 -0.59072533 125.66025162 -0.63438034 C129.71677843 -0.67514994 133.77241794 -0.68766063 137.82913017 -0.67864609 C139.31666196 -0.68029483 140.80422384 -0.69220508 142.29157829 -0.71523285 C144.32552406 -0.74517471 146.35994751 -0.73431048 148.39407349 -0.7215271 C149.53156603 -0.72705786 150.66905857 -0.73258862 151.84102058 -0.73828697 C155 0 155 0 161 6 C161 28.11 161 50.22 161 73 C107.87 73 54.74 73 0 73 C0 48.91 0 24.82 0 0 Z " fill="#FDFDFD" transform="translate(733,532)"/>
<path d="M0 0 C53.13 0 106.26 0 161 0 C161 23.43 161 46.86 161 71 C107.87 71 54.74 71 0 71 C0 47.57 0 24.14 0 0 Z " fill="#FDFDFC" transform="translate(733,304)"/>
<path d="M0 0 C49.5 0 99 0 150 0 C150 24.09 150 48.18 150 73 C100.5 73 51 73 0 73 C0 48.91 0 24.82 0 0 Z " fill="#FDFDFD" transform="translate(580,607)"/>
<path d="M0 0 C49.5 0 99 0 150 0 C150 24.09 150 48.18 150 73 C100.5 73 51 73 0 73 C0 48.91 0 24.82 0 0 Z " fill="#FBFBFB" transform="translate(428,304)"/>
<path d="M0 0 C37.3250878 -0.04030303 37.3250878 -0.04030303 52.91601562 -0.04882812 C63.69897942 -0.05477142 74.48193543 -0.06177392 85.26489258 -0.07543945 C93.1165955 -0.08538541 100.96829214 -0.09185322 108.82000118 -0.09408849 C112.98003452 -0.09539575 117.14004985 -0.09848255 121.30007744 -0.10573006 C125.21108412 -0.11248889 129.12206527 -0.11461724 133.03307724 -0.11310768 C134.47267228 -0.11338407 135.91226813 -0.11539001 137.35185814 -0.11920547 C139.30894233 -0.12414051 141.26604004 -0.12239807 143.22312927 -0.12025452 C144.32098472 -0.12117631 145.41884016 -0.1220981 146.54996395 -0.12304783 C149 0 149 0 150 1 C150 24.76 150 48.52 150 73 C100.5 73 51 73 0 73 C0 48.91 0 24.82 0 0 Z " fill="#FDFDFD" transform="translate(580,456)"/>
<path d="M0 0 C49.5 0 99 0 150 0 C150 23.43 150 46.86 150 71 C148 73 148 73 145.44253349 73.24609566 C144.35297419 73.24425207 143.26341488 73.24240849 142.14083862 73.24050903 C140.26877243 73.24463303 140.26877243 73.24463303 138.35888672 73.24884033 C136.96826077 73.24176158 135.57763578 73.23449195 134.18701172 73.22705078 C132.72860726 73.22648688 131.27020223 73.22680281 129.8117981 73.22793579 C125.84505147 73.22851115 121.87842506 73.21672734 117.91170645 73.20278788 C113.76903481 73.19031093 109.62636062 73.18911242 105.4836731 73.18673706 C97.63553468 73.18051334 89.78745178 73.1640905 81.93933785 73.14403808 C71.33656758 73.11753365 60.7337822 73.10671364 50.13098717 73.09503365 C33.4206165 73.0762105 16.71036301 73.0363708 0 73 C0 48.91 0 24.82 0 0 Z " fill="#FCFCFC" transform="translate(580,304)"/>
<path d="M0 0 C49.17 0 98.34 0 149 0 C149 24.09 149 48.18 149 73 C99.83 73 50.66 73 0 73 C0 48.91 0 24.82 0 0 Z " fill="#FDFDFD" transform="translate(580,380)"/>
<path d="M0 0 C48.84 0 97.68 0 148 0 C148 24.09 148 48.18 148 73 C99.16 73 50.32 73 0 73 C0 48.91 0 24.82 0 0 Z " fill="#FDFDFD" transform="translate(429,607)"/>
<path d="M0 0 C48.84 0 97.68 0 148 0 C148 24.09 148 48.18 148 73 C99.16 73 50.32 73 0 73 C0 48.91 0 24.82 0 0 Z " fill="#FDFDFD" transform="translate(429,532)"/>
<path d="M0 0 C48.84 0 97.68 0 148 0 C148 24.09 148 48.18 148 73 C99.16 73 50.32 73 0 73 C0 48.91 0 24.82 0 0 Z " fill="#FDFDFD" transform="translate(429,456)"/>
<path d="M0 0 C48.84 0 97.68 0 148 0 C148 24.09 148 48.18 148 73 C99.16 73 50.32 73 0 73 C0 48.91 0 24.82 0 0 Z " fill="#FDFDFD" transform="translate(429,380)"/>
<path d="M0 0 C49.17 0 98.34 0 149 0 C149 23.76 149 47.52 149 72 C99.83 72 50.66 72 0 72 C0 48.24 0 24.48 0 0 Z " fill="#FDFDFD" transform="translate(581,532)"/>
<path d="M0 0 C10.18706648 8.62732424 18.59744717 21.82691914 19.82568359 35.33154297 C19.9283175 37.66308493 19.95419486 39.97879717 19.9375 42.3125 C19.93186035 43.14402588 19.9262207 43.97555176 19.92041016 44.83227539 C19.60757701 60.86265111 14.43567972 74.05739193 3.2578125 85.65234375 C-9.73735276 97.85700192 -25.29731329 102.82782958 -42.828125 102.4375 C-57.85183415 101.68568803 -71.20591155 93.85034628 -81.375 83.125 C-91.00969875 71.68731669 -95.76060247 58.02466989 -95.625 43.1875 C-95.63273438 42.34509766 -95.64046875 41.50269531 -95.6484375 40.63476562 C-95.60064699 25.11479766 -89.09200721 12.68918685 -78.25390625 1.78515625 C-55.73688005 -19.02094259 -23.79652963 -18.08678109 0 0 Z " fill="#FCFCFC" transform="translate(974.375,444.875)"/>
<path d="M0 0 C226.05 0 452.1 0 685 0 C685 126.06 685 252.12 685 382 C458.95 382 232.9 382 0 382 C0 255.94 0 129.88 0 0 Z M2 3 C2 27.09 2 51.18 2 76 C51.5 76 101 76 152 76 C152 51.91 152 27.82 152 3 C102.5 3 53 3 2 3 Z M154 3 C154 27.09 154 51.18 154 76 C203.17 76 252.34 76 303 76 C303 76.66 303 77.32 303 78 C253.83 78 204.66 78 154 78 C153.67 127.17 153.34 176.34 153 227 C152.5625 153.0625 152.5625 153.0625 152.43188477 129.67602539 C152.38865388 122.78636508 152.38865388 122.78636508 152.34410095 115.89671326 C152.32421964 112.81676643 152.30714631 109.73681746 152.29173279 106.65684509 C152.27201861 102.73555793 152.24760408 98.81432723 152.21969402 94.89309013 C152.21023532 93.44936511 152.20246854 92.00562784 152.19653046 90.56188405 C152.18831121 88.62086704 152.17346771 86.67988136 152.15821838 84.73890686 C152.15176583 83.64842576 152.14531328 82.55794466 152.1386652 81.43441868 C152.27396009 79.05204321 152.27396009 79.05204321 151 78 C101.83 78 52.66 78 2 78 C2 177.33 2 276.66 2 379 C51.5 379 101 379 152 379 C152.495 343.36 152.495 343.36 153 307 C153.33 330.76 153.66 354.52 154 379 C328.24 379 502.48 379 682 379 C682 279.67 682 180.34 682 78 C612.7 78 543.4 78 472 78 C472 77.34 472 76.68 472 76 C541.3 76 610.6 76 682 76 C682 51.91 682 27.82 682 3 C612.37 3 542.74 3 471 3 C471 26.43 471 49.86 471 74 C470.01 74 469.02 74 468 74 C468 50.57 468 27.14 468 3 C414.87 3 361.74 3 307 3 C307 26.43 307 49.86 307 74 C306.01 74 305.02 74 304 74 C304 50.57 304 27.14 304 3 C254.5 3 205 3 154 3 Z " fill="#484A56" transform="translate(426,301)"/>
<path d="M0 0 C37.62 0 75.24 0 114 0 C114 24.09 114 48.18 114 73 C75.39 73 36.78 73 -3 73 C-3 68.90463155 -1.06897258 66.08615665 0.8125 62.5625 C9.25955755 46.05116531 9.87044848 30.31085328 5.265625 12.5859375 C3.88881387 8.68497264 2.09044961 5.5572777 0 2 C0 1.34 0 0.68 0 0 Z " fill="#FDFDFD" transform="translate(993,456)"/>
<path d="M0 0 C13.32547694 10.41340867 23.74341105 25.05049619 26.6953125 41.9375 C28.65518796 60.25386695 24.55014258 73.85148379 16.01171875 89.89453125 C15.68171875 90.55453125 15.35171875 91.21453125 15.01171875 91.89453125 C15.50148193 92.31863281 15.99124512 92.74273438 16.49584961 93.1796875 C28.4092706 103.54289753 39.74440805 114.52531504 50.94406128 125.65063477 C51.98668222 126.68576623 53.03088691 127.71930498 54.07669067 128.7512207 C55.54987319 130.20657832 57.01609519 131.6685981 58.48046875 133.1328125 C59.33060547 133.97884033 60.18074219 134.82486816 61.05664062 135.6965332 C64.31804002 139.36316391 64.34663761 142.91283485 64.30078125 147.60546875 C63.85638233 151.12462776 62.27745502 153.24038305 60.01171875 155.89453125 C55.88839956 158.64341071 52.83666851 158.79696506 48.01171875 157.89453125 C46.18725586 156.69946289 46.18725586 156.69946289 44.4140625 155.0546875 C43.72594482 154.41942139 43.03782715 153.78415527 42.32885742 153.12963867 C38.2584129 149.20329586 34.21878287 145.24937367 30.22851562 141.24169922 C28.75373249 139.76151574 27.27362411 138.28680691 25.79296875 136.8125 C24.83952267 135.85839367 23.88638654 134.90397747 22.93359375 133.94921875 C22.0837793 133.09827637 21.23396484 132.24733398 20.35839844 131.37060547 C18.01171875 128.89453125 18.01171875 128.89453125 15.89160156 126.20361328 C14.04523585 123.70379059 14.04523585 123.70379059 11.01171875 121.89453125 C11.01171875 121.23453125 11.01171875 120.57453125 11.01171875 119.89453125 C10.02171875 119.56453125 9.03171875 119.23453125 8.01171875 118.89453125 C6.77336737 117.4280625 5.53725267 115.9594059 4.328125 114.46875 C2.38196961 112.14144845 0.64017294 110.43313858 -1.98828125 108.89453125 C-5.11909966 109.41633432 -7.59380576 110.70202721 -10.4296875 112.0859375 C-24.99336111 119.02595266 -43.56635553 120.73157502 -59.1953125 115.9921875 C-69.29845474 112.02158195 -77.38977924 106.61407134 -84.98828125 98.89453125 C-85.62378906 98.25773438 -86.25929688 97.6209375 -86.9140625 96.96484375 C-98.93571368 84.11687065 -104.68346463 67.42036157 -104.23046875 49.9296875 C-102.75299742 31.41363554 -96.17758405 17.94766131 -82.98828125 4.89453125 C-82.18777344 4.04246094 -81.38726563 3.19039063 -80.5625 2.3125 C-72.62564836 -5.1426004 -62.58393043 -9.26340905 -51.98828125 -11.10546875 C-51.07433594 -11.28722656 -50.16039062 -11.46898437 -49.21875 -11.65625 C-30.74571531 -14.22505168 -15.34062342 -10.80862225 0 0 Z M-78.98828125 10.89453125 C-79.68695312 11.5390625 -80.385625 12.18359375 -81.10546875 12.84765625 C-92.45556433 24.41857081 -96.30326257 38.18305923 -96.37548828 53.93115234 C-96.11280159 70.23838767 -89.41320218 83.82364314 -78.3359375 95.640625 C-67.09423416 106.4334084 -52.47223442 111.34012598 -37.13867188 111.33056641 C-20.8275116 110.94236345 -7.26962879 103.63039019 4.4609375 92.61328125 C16.95222594 79.29944242 19.66007844 63.92518859 19.25 46.34765625 C18.73491829 34.11763742 12.10157916 21.40692239 3.75390625 12.47265625 C-9.00977285 0.91093796 -24.63313222 -5.91621898 -42.0234375 -5.390625 C-56.009242 -4.04548175 -68.71700005 1.354426 -78.98828125 10.89453125 Z " fill="#575D66" transform="translate(974.98828125,436.10546875)"/>
<path d="M0 0 C0.68618566 -0.00155999 1.37237131 -0.00311998 2.07935047 -0.00472724 C4.39561375 -0.00873937 6.71181233 -0.0055468 9.02807617 -0.00241089 C10.68175292 -0.00376484 12.33542936 -0.00554473 13.98910522 -0.00772095 C18.49310922 -0.01229606 22.99709041 -0.0105054 27.50109482 -0.00734186 C32.20385553 -0.00481866 36.90661422 -0.00715569 41.609375 -0.00872803 C49.50838574 -0.01054984 57.40738716 -0.00814311 65.30639648 -0.00338745 C74.45237253 0.00205519 83.59832629 0.00029254 92.7443018 -0.00521386 C100.58206658 -0.00974465 108.41982463 -0.0103957 116.25759029 -0.00777519 C120.94521894 -0.00621223 125.6328371 -0.00601916 130.32046509 -0.00931168 C134.72641677 -0.01218991 139.13233957 -0.01021559 143.53828812 -0.00441742 C145.16010108 -0.00308956 146.78191646 -0.00348437 148.40372849 -0.00568008 C150.60821563 -0.00839059 152.81260877 -0.00501172 155.01708984 0 C156.253759 0.00037703 157.49042816 0.00075405 158.76457214 0.0011425 C161.50854492 0.12698364 161.50854492 0.12698364 162.50854492 1.12698364 C162.60240873 2.99879305 162.62598296 4.87416424 162.62207031 6.74832153 C162.62199478 7.94949112 162.62191925 9.15066071 162.62184143 10.38822937 C162.61668015 11.69549484 162.61151886 13.00276031 162.60620117 14.34963989 C162.60433691 15.69342496 162.60291304 17.03721071 162.60191345 18.3809967 C162.59808894 21.92380641 162.58825924 25.46657534 162.57720947 29.0093689 C162.56699392 32.62213591 162.56241552 36.23490949 162.55737305 39.84768677 C162.5466369 46.94080244 162.52956128 54.03389039 162.50854492 61.12698364 C161.86916992 61.41573364 161.22979492 61.70448364 160.57104492 62.00198364 C158.35648413 62.95521815 158.35648413 62.95521815 157.50854492 65.12698364 C155.87508258 45.5254355 156.50854492 25.79647497 156.50854492 6.12698364 C104.36854492 6.12698364 52.22854492 6.12698364 -1.49145508 6.12698364 C-1.49145508 29.55698364 -1.49145508 52.98698364 -1.49145508 77.12698364 C43.71854492 77.12698364 88.92854492 77.12698364 135.50854492 77.12698364 C135.50854492 78.77698364 135.50854492 80.42698364 135.50854492 82.12698364 C117.14174441 82.28073807 98.77490723 82.4287752 80.40800571 82.56994724 C71.88054053 82.63562551 63.3530981 82.70319687 54.82568359 82.775177 C47.39590901 82.83788717 39.96611632 82.89709423 32.5362801 82.95203918 C28.59979323 82.98127402 24.66333837 83.01230057 20.7269001 83.04751778 C17.02604226 83.08057213 13.3251787 83.1089624 9.62425613 83.13368988 C7.60981284 83.14838832 5.59540819 83.16810886 3.58100891 83.1879425 C1.79935333 83.19850174 1.79935333 83.19850174 -0.01829529 83.20927429 C-1.05715598 83.21757043 -2.09601667 83.22586657 -3.16635799 83.2344141 C-5.49145508 83.12698364 -5.49145508 83.12698364 -6.49145508 82.12698364 C-8.41472285 82.01813206 -10.34201342 81.98008699 -12.26832581 81.96876526 C-13.52340942 81.95897644 -14.77849304 81.94918762 -16.0716095 81.93910217 C-17.4753109 81.93319721 -18.8790127 81.92738682 -20.28271484 81.92166138 C-21.75082682 81.91208825 -23.218936 81.90207851 -24.68704224 81.8916626 C-28.68477162 81.86454613 -32.6825129 81.8435732 -36.68028378 81.82366061 C-40.85368614 81.80184249 -45.02705158 81.77443345 -49.20042419 81.74760437 C-57.10875622 81.69762086 -65.01710868 81.6527031 -72.92548078 81.60958201 C-81.92656624 81.56025788 -90.92761466 81.50532192 -99.92866433 81.44990242 C-118.44956022 81.33599554 -136.97049103 81.22917556 -155.49145508 81.12698364 C-155.49145508 80.13698364 -155.49145508 79.14698364 -155.49145508 78.12698364 C-106.32145508 78.12698364 -57.15145508 78.12698364 -6.49145508 78.12698364 C-6.49145508 54.03698364 -6.49145508 29.94698364 -6.49145508 5.12698364 C-55.66145508 5.12698364 -104.83145508 5.12698364 -155.49145508 5.12698364 C-155.49145508 4.79698364 -155.49145508 4.46698364 -155.49145508 4.12698364 C-106.32145508 4.12698364 -57.15145508 4.12698364 -6.49145508 4.12698364 C-6.82145508 3.13698364 -7.15145508 2.14698364 -7.49145508 1.12698364 C-5.6256525 -0.73881894 -2.48781281 0.00075846 0 0 Z " fill="#DFB34E" transform="translate(735.491455078125,374.8730163574219)"/>
<path d="M0 0 C2.11764768 -0.0004373 4.2352953 -0.00131512 6.35294265 -0.00258917 C12.10890441 -0.00480295 17.86484722 -0.00085607 23.62080657 0.0041889 C29.85157953 0.00853847 36.08235156 0.00704379 42.31312561 0.00628662 C53.08745443 0.00576423 63.86177573 0.00884594 74.63610268 0.01452446 C85.92543886 0.02045905 97.21477261 0.02429394 108.50411034 0.02537727 C109.5604208 0.02548038 109.5604208 0.02548038 110.63807088 0.02558558 C114.2149656 0.02592395 117.79186033 0.02622532 121.36875506 0.02651245 C146.64701736 0.02860804 171.92527648 0.03533188 197.20353699 0.04481506 C221.74780765 0.05401221 246.29207745 0.06107265 270.83634949 0.06532288 C272.38208797 0.06559352 273.92782644 0.06586422 275.47356492 0.06613499 C288.03508319 0.06832404 300.59660149 0.07036651 313.15811979 0.07237347 C371.15576511 0.08174529 429.15340216 0.10181981 487.15104675 0.12025452 C487.15104675 122.55025452 487.15104675 244.98025452 487.15104675 371.12025452 C486.82104675 371.12025452 486.49104675 371.12025452 486.15104675 371.12025452 C484.79890511 342.83058672 485.018217 314.51587512 485.04750898 286.20222727 C485.05478514 278.9709566 485.05617036 271.73968789 485.05730469 264.50841408 C485.05947582 251.61999105 485.06608242 238.73157446 485.0756073 225.84315491 C485.08483221 213.34738699 485.09187646 200.85162086 485.09611511 188.35585022 C485.09638311 187.57357235 485.09665111 186.79129447 485.09692723 185.98531121 C485.0990075 179.86443761 485.10096413 173.74356397 485.10288179 167.62269032 C485.11226024 137.78853913 485.13239134 107.95440414 485.15104675 78.12025452 C415.85104675 78.12025452 346.55104675 78.12025452 275.15104675 78.12025452 C275.15104675 77.46025452 275.15104675 76.80025452 275.15104675 76.12025452 C344.45104675 76.12025452 413.75104675 76.12025452 485.15104675 76.12025452 C484.82104675 52.03025452 484.49104675 27.94025452 484.15104675 3.12025452 C360.40104675 2.79025452 236.65104675 2.46025452 109.15104675 2.12025452 C109.15104675 24.89025452 109.15104675 47.66025452 109.15104675 71.12025452 C108.82104675 71.12025452 108.49104675 71.12025452 108.15104675 71.12025452 C108.15104675 48.35025452 108.15104675 25.58025452 108.15104675 2.12025452 C58.32104675 2.12025452 8.49104675 2.12025452 -42.84895325 2.12025452 C-42.84895325 1.79025452 -42.84895325 1.46025452 -42.84895325 1.12025452 C-28.55326939 0.31862215 -14.31654268 -0.02237674 0 0 Z " fill="#3C414E" transform="translate(622.8489532470703,300.87974548339844)"/>
<path d="M0 0 C0.33 0 0.66 0 1 0 C1 126.06 1 252.12 1 382 C-44.9525 382.020625 -90.905 382.04125 -138.25 382.0625 C-160.04401855 382.07615601 -160.04401855 382.07615601 -182.27832031 382.09008789 C-199.97021484 382.09460449 -199.97021484 382.09460449 -208.24285889 382.09544373 C-214.04185387 382.09637836 -219.84083928 382.1000554 -225.63983154 382.10557556 C-232.32310133 382.11192811 -239.0063619 382.11483894 -245.68963473 382.11344495 C-249.11048537 382.11284092 -252.53131538 382.11381765 -255.95216227 382.11921513 C-259.61047957 382.12415721 -263.26874459 382.1230016 -266.92706299 382.12025452 C-268.00067959 382.12316718 -269.07429619 382.12607985 -270.18044662 382.12908077 C-271.16058479 382.1270899 -272.14072296 382.12509903 -273.15056229 382.12304783 C-274.41958763 382.12361741 -274.41958763 382.12361741 -275.71424985 382.1241985 C-277.94864827 382.00279025 -279.83919894 381.54956944 -282 381 C-283.45299099 380.90906661 -284.90947464 380.86648166 -286.36529922 380.8613348 C-287.23714552 380.85586036 -288.10899182 380.85038591 -289.0072577 380.84474558 C-290.43721342 380.84327842 -290.43721342 380.84327842 -291.89605713 380.84178162 C-293.42026516 380.83437465 -293.42026516 380.83437465 -294.97526526 380.82681805 C-298.39008403 380.81142431 -301.80488396 380.80307731 -305.21972656 380.79467773 C-307.66363695 380.78510069 -310.10754567 380.77509071 -312.55145264 380.76467896 C-317.81813254 380.74321809 -323.08480983 380.72477744 -328.35150909 380.70907402 C-335.96627646 380.68636429 -343.58101613 380.65822299 -351.19575998 380.62875474 C-363.55009078 380.58109237 -375.9044329 380.53782451 -388.25878906 380.49731445 C-400.26010011 380.45795264 -412.2614011 380.41652476 -424.26269531 380.37231445 C-425.00241932 380.36959018 -425.74214333 380.36686591 -426.50428322 380.36405908 C-430.21525048 380.35037949 -433.92621759 380.33665924 -437.63718462 380.32291877 C-468.42476897 380.20897527 -499.21237443 380.10223433 -530 380 C-530 379.67 -530 379.34 -530 379 C-355.76 379 -181.52 379 -2 379 C-2 366.13 -2 353.26 -2 340 C-1.67 340 -1.34 340 -1 340 C-0.505 171.7 -0.505 171.7 0 0 Z " fill="#696C76" transform="translate(1110,301)"/>
<path d="M0 0 C0.99 0 1.98 0 3 0 C3 23.43 3 46.86 3 71 C53.16 70.67 103.32 70.34 155 70 C155.66 71.32 156.32 72.64 157 74 C106.18 74 55.36 74 3 74 C3 98.09 3 122.18 3 147 C-47.49 147 -97.98 147 -150 147 C-150 73 -150 73 -148 71 C-145.44253349 70.75390434 -145.44253349 70.75390434 -142.14083862 70.75949097 C-140.89279449 70.75674164 -139.64475037 70.75399231 -138.35888672 70.75115967 C-136.96826077 70.75823842 -135.57763578 70.76550805 -134.18701172 70.77294922 C-132.72860726 70.77351312 -131.27020223 70.77319719 -129.8117981 70.77206421 C-125.84505147 70.77148885 -121.87842506 70.78327266 -117.91170645 70.79721212 C-113.76903481 70.80968907 -109.62636062 70.81088758 -105.4836731 70.81326294 C-97.63553468 70.81948666 -89.78745178 70.8359095 -81.93933785 70.85596192 C-71.33656758 70.88246635 -60.7337822 70.89328636 -50.13098717 70.90496635 C-33.4206165 70.9237895 -16.71036301 70.9636292 0 71 C0 47.57 0 24.14 0 0 Z M-149 74 C-149 97.76 -149 121.52 -149 146 C-99.83 146 -50.66 146 0 146 C0 122.24 0 98.48 0 74 C-49.17 74 -98.34 74 -149 74 Z " fill="#C5C5C9" transform="translate(730,458)"/>
<path d="M0 0 C21.88720664 -0.0233268 43.77441124 -0.0409781 65.66162777 -0.05181217 C75.823495 -0.0569756 85.98535452 -0.06401917 96.1472168 -0.07543945 C105.00093626 -0.08538488 113.85465014 -0.09185309 122.70837504 -0.09408849 C127.39937535 -0.09539584 132.09035969 -0.09848321 136.7813549 -0.10573006 C141.19139252 -0.11248805 145.60140751 -0.11461742 150.01144981 -0.11310768 C151.63487623 -0.11338411 153.25830336 -0.11539054 154.88172531 -0.11920547 C157.0884505 -0.12413928 159.29508883 -0.12299947 161.5018158 -0.12025452 C162.73978377 -0.12117631 163.97775175 -0.1220981 165.25323391 -0.12304783 C168 0 168 0 169 1 C169.09386381 2.8718094 169.11743804 4.7471806 169.11352539 6.62133789 C169.11344986 7.82250748 169.11337433 9.02367706 169.11329651 10.26124573 C169.10813522 11.5685112 169.10297394 12.87577667 169.09765625 14.22265625 C169.09579198 15.56644132 169.09436812 16.91022707 169.09336853 18.25401306 C169.08954402 21.79682277 169.07971432 25.3395917 169.06866455 28.88238525 C169.05844899 32.49515227 169.0538706 36.10792584 169.04882812 39.72070312 C169.03809198 46.8138188 169.02101636 53.90690674 169 61 C168.0409375 61.433125 168.0409375 61.433125 167.0625 61.875 C164.84793921 62.82823451 164.84793921 62.82823451 164 65 C162.36653765 45.39845186 163 25.66949132 163 6 C111.19 6 59.38 6 6 6 C6 4.35 6 2.7 6 1 C3.69 1.33 1.38 1.66 -1 2 C-0.67 1.34 -0.34 0.68 0 0 Z " fill="#F5BB3D" transform="translate(729,375)"/>
<path d="M0 0 C0.33 0 0.66 0 1 0 C1.33 48.84 1.66 97.68 2 148 C4.865526 148.95517533 6.76521321 149.15054198 9.74682617 149.20532227 C10.70759567 149.22526749 11.66836517 149.24521271 12.6582489 149.26576233 C13.69270645 149.28247482 14.727164 149.29918732 15.79296875 149.31640625 C17.38471672 149.3475779 17.38471672 149.3475779 19.00862122 149.37937927 C22.40151437 149.44481238 25.7944855 149.50373093 29.1875 149.5625 C31.48633622 149.60569114 33.78516453 149.64930562 36.08398438 149.69335938 C41.7225736 149.8004874 47.36124056 149.90226551 53 150 C53 150.33 53 150.66 53 151 C36.5 151 20 151 3 151 C3 175.42 3 199.84 3 225 C52.83 225 102.66 225 154 225 C154 200.91 154 176.82 154 152 C154.33 152 154.66 152 155 152 C155 176.09 155 200.18 155 225 C161.27 225 167.54 225 174 225 C178.11996348 225.05762401 182.23659733 225.12409987 186.35546875 225.21875 C187.3939949 225.24094604 188.43252106 225.26314209 189.5025177 225.28601074 C192.73088996 225.35543581 195.95919211 225.42765017 199.1875 225.5 C201.41340739 225.54836459 203.63931884 225.59654275 205.86523438 225.64453125 C211.24353811 225.76087914 216.62178778 225.87949937 222 226 C222 226.33 222 226.66 222 227 C200.22 227 178.44 227 156 227 C156 251.09 156 275.18 156 300 C155.01 300 154.02 300 153 300 C153 275.91 153 251.82 153 227 C103.17 227.33 53.34 227.66 2 228 C1.67 251.76 1.34 275.52 1 300 C0.67 300 0.34 300 0 300 C0 275.91 0 251.82 0 227 C-9.57 227 -19.14 227 -29 227 C-29 226.67 -29 226.34 -29 226 C-19.76 225.67 -10.52 225.34 -1 225 C-0.67 200.58 -0.34 176.16 0 151 C-0.66 150.67 -1.32 150.34 -2 150 C-1.34 150 -0.68 150 0 150 C0 125.25 0 100.5 0 75 C-1.485 74.505 -1.485 74.505 -3 74 C-2.01 74 -1.02 74 0 74 C0 49.58 0 25.16 0 0 Z " fill="#B3B4B9" transform="translate(577,380)"/>
<path d="M0 0 C0.99 0.495 0.99 0.495 2 1 C2 25.09 2 49.18 2 74 C9.49170898 73.98952637 16.98341797 73.97905273 24.70214844 73.96826172 C48.66040807 73.93617603 72.61866644 73.9139212 96.57694171 73.89786934 C100.29706276 73.89536786 104.01718374 73.89277923 107.73730469 73.89013672 C108.47792791 73.8896121 109.21855113 73.88908748 109.98161748 73.88854696 C121.98079848 73.87983937 133.97996035 73.86406745 145.97913 73.84569441 C158.28724319 73.8270052 170.59534634 73.81588535 182.90347314 73.81182301 C190.50100681 73.80907592 198.09848643 73.80039289 205.69600347 73.78416707 C211.51734459 73.7723663 217.33865783 73.77108618 223.16001129 73.77378464 C225.55136956 73.7732328 227.94272981 73.76923328 230.33407593 73.76158905 C233.59077459 73.75168615 236.84723916 73.75401414 240.10394287 73.75949097 C241.53389859 73.75075244 241.53389859 73.75075244 242.9927423 73.74183738 C243.8645886 73.74581948 244.73643489 73.74980158 245.63470078 73.75390434 C246.38654703 73.7531449 247.13839328 73.75238546 247.91302276 73.75160301 C250 74 250 74 254 76 C147.74 76 41.48 76 -68 76 C-68 75.34 -68 74.68 -68 74 C-94.73 74 -121.46 74 -149 74 C-149 73.67 -149 73.34 -149 73 C-99.83 73 -50.66 73 0 73 C0 48.91 0 24.82 0 0 Z " fill="#494C5A" transform="translate(578,607)"/>
<path d="M0 0 C173.91 0 347.82 0 527 0 C527 0.33 527 0.66 527 1 C457.7 1 388.4 1 317 1 C317 24.43 317 47.86 317 72 C316.01 72 315.02 72 314 72 C314 48.57 314 25.14 314 1 C260.87 1 207.74 1 153 1 C153 24.43 153 47.86 153 72 C152.01 72 151.02 72 150 72 C150 48.57 150 25.14 150 1 C100.5 1 51 1 0 1 C0 0.67 0 0.34 0 0 Z " fill="#6D7078" transform="translate(580,303)"/>
<path d="M0 0 C0.33 0 0.66 0 1 0 C1.33 99 1.66 198 2 300 C28.73 300.33 55.46 300.66 83 301 C83 301.66 83 302.32 83 303 C55.28 303 27.56 303 -1 303 C-1.02203158 264.83283782 -1.04050107 226.66568162 -1.05106533 188.4985149 C-1.05231609 183.99599886 -1.0536104 179.49348282 -1.05493164 174.9909668 C-1.05519395 174.0945693 -1.05545626 173.1981718 -1.05572652 172.27461074 C-1.06008185 157.74635039 -1.06796865 143.21809399 -1.0771528 128.68983599 C-1.08649314 113.79060825 -1.09205642 98.89138258 -1.09408849 83.99215204 C-1.09546293 74.79313555 -1.09980924 65.5941302 -1.10791647 56.39511714 C-1.11318861 50.09326577 -1.11480322 43.79142019 -1.11350138 37.48956677 C-1.11285874 33.84978353 -1.11386724 30.21001982 -1.11920547 26.57024002 C-1.12494221 22.63012725 -1.12299682 18.69004021 -1.12025452 14.74992371 C-1.12316736 13.59137774 -1.1260802 12.43283178 -1.12908131 11.23917836 C-1.12709026 10.18818654 -1.12509921 9.13719472 -1.12304783 8.05435467 C-1.12342755 7.14416504 -1.12380727 6.2339754 -1.1241985 5.29620427 C-1 3 -1 3 0 0 Z " fill="#3C3F4C" transform="translate(427,380)"/>
<path d="M0 0 C4.34765712 1.65675284 7.09435386 4.90991438 10.25 8.1875 C13.61744047 11.66448372 16.99872823 15.04704866 20.671875 18.203125 C25.77863535 22.61657938 30.62204781 27.29193269 35.43017578 32.02514648 C36.48494986 33.05810331 37.54595317 34.08473404 38.61279297 35.10522461 C40.17321959 36.59883016 41.7131062 38.11114176 43.25 39.62890625 C44.16265625 40.51650635 45.0753125 41.40410645 46.015625 42.31860352 C48.38376059 45.51855838 48.51879565 47.10596081 48 51 C46.8125 52.9375 46.8125 52.9375 45 54 C40.70377467 53.63891514 38.73148334 52.22944488 35.73217773 49.21801758 C34.92461533 48.41660843 34.11705292 47.61519928 33.28501892 46.789505 C32.42654861 45.91666367 31.56807831 45.04382233 30.68359375 44.14453125 C29.34337914 42.80294197 29.34337914 42.80294197 27.97608948 41.43424988 C26.08761077 39.53972843 24.20340414 37.64191077 22.32543945 35.73706055 C19.92938755 33.30712713 17.52047905 30.89046922 15.10667324 28.4781847 C12.79336971 26.16420309 10.48862228 23.84175169 8.18359375 21.51953125 C7.32309921 20.65681107 6.46260468 19.79409088 5.57603455 18.90522766 C1.55674294 14.82218131 -2.07252084 10.93727054 -5 6 C-3.35 4.02 -1.7 2.04 0 0 Z " fill="#F6F7F7" transform="translate(984,533)"/>
<path d="M0 0 C44.88 0 89.76 0 136 0 C136 1.65 136 3.3 136 5 C89.8 5 43.6 5 -4 5 C-4 4.67 -4 4.34 -4 4 C-2.5459375 3.814375 -2.5459375 3.814375 -1.0625 3.625 C0.4534375 3.315625 0.4534375 3.315625 2 3 C2.33 2.34 2.66 1.68 3 1 C2.01 0.67 1.02 0.34 0 0 Z " fill="#F4B82C" transform="translate(735,452)"/>
<path d="M0 0 C0.33 0 0.66 0 1 0 C1.33 48.84 1.66 97.68 2 148 C4.865526 148.95517533 6.76521321 149.15054198 9.74682617 149.20532227 C10.70759567 149.22526749 11.66836517 149.24521271 12.6582489 149.26576233 C13.69270645 149.28247482 14.727164 149.29918732 15.79296875 149.31640625 C17.38471672 149.3475779 17.38471672 149.3475779 19.00862122 149.37937927 C22.40151437 149.44481238 25.7944855 149.50373093 29.1875 149.5625 C31.48633622 149.60569114 33.78516453 149.64930562 36.08398438 149.69335938 C41.7225736 149.8004874 47.36124056 149.90226551 53 150 C53 150.33 53 150.66 53 151 C36.5 151 20 151 3 151 C3 175.09 3 199.18 3 224 C2.34 224 1.68 224 1 224 C1 249.08 1 274.16 1 300 C0.67 300 0.34 300 0 300 C0 275.91 0 251.82 0 227 C-9.57 227 -19.14 227 -29 227 C-29 226.67 -29 226.34 -29 226 C-19.76 225.67 -10.52 225.34 -1 225 C-0.67 200.58 -0.34 176.16 0 151 C-0.66 150.67 -1.32 150.34 -2 150 C-1.34 150 -0.68 150 0 150 C0 125.25 0 100.5 0 75 C-1.485 74.505 -1.485 74.505 -3 74 C-2.01 74 -1.02 74 0 74 C0 49.58 0 25.16 0 0 Z " fill="#8B8D93" transform="translate(577,380)"/>
<path d="M0 0 C48.84 0 97.68 0 148 0 C148 0.99 148 1.98 148 3 C99.16 3 50.32 3 0 3 C0 2.01 0 1.02 0 0 Z " fill="#C4C4C8" transform="translate(580,453)"/>
<path d="M0 0 C48.84 0 97.68 0 148 0 C148 0.99 148 1.98 148 3 C99.16 3 50.32 3 0 3 C0 2.01 0 1.02 0 0 Z " fill="#C7C7CB" transform="translate(429,453)"/>
<path d="M0 0 C0.99 0.495 0.99 0.495 2 1 C2.33 25.42 2.66 49.84 3 75 C-1.49256464 75.74876077 -5.16766359 76.1222419 -9.64794922 76.11352539 C-10.94884491 76.11344986 -12.2497406 76.11337433 -13.59005737 76.11329651 C-14.99493448 76.10819101 -16.39981119 76.10297504 -17.8046875 76.09765625 C-19.25342764 76.09578923 -20.70216842 76.09436667 -22.15090942 76.09336853 C-25.94846363 76.08956573 -29.74597908 76.07975474 -33.54351807 76.06866455 C-37.42484005 76.05840215 -41.30616834 76.05386059 -45.1875 76.04882812 C-52.79168426 76.0381303 -60.39583668 76.02108098 -68 76 C-68 75.34 -68 74.68 -68 74 C-94.73 74 -121.46 74 -149 74 C-149 73.67 -149 73.34 -149 73 C-99.83 73 -50.66 73 0 73 C0 48.91 0 24.82 0 0 Z " fill="#5F626C" transform="translate(578,607)"/>
<path d="M0 0 C48.84 0 97.68 0 148 0 C148 0.99 148 1.98 148 3 C99.16 3 50.32 3 0 3 C0 2.01 0 1.02 0 0 Z " fill="#BABABF" transform="translate(429,529)"/>
<path d="M0 0 C49.5 0 99 0 150 0 C150 0.66 150 1.32 150 2 C101.49 2.33 52.98 2.66 3 3 C2.67 27.09 2.34 51.18 2 76 C1.67 76 1.34 76 1 76 C-0.20508809 50.69315011 0 25.33552622 0 0 Z " fill="#3E424F" transform="translate(426,301)"/>
<path d="M0 0 C70.29 0 140.58 0 213 0 C213 0.33 213 0.66 213 1 C143.7 1 74.4 1 3 1 C3 24.43 3 47.86 3 72 C2.01 72 1.02 72 0 72 C0 48.24 0 24.48 0 0 Z " fill="#63666E" transform="translate(894,303)"/>
<path d="M0 0 C2.5 0.125 2.5 0.125 3.5 1.125 C3.61356724 4.1313825 3.66418912 7.11392442 3.66796875 10.12109375 C3.67129715 11.0249733 3.67462555 11.92885284 3.67805481 12.86012268 C3.68312796 14.77596527 3.68546302 16.69181672 3.68530273 18.60766602 C3.68748813 21.54653418 3.70563665 24.48502652 3.72460938 27.42382812 C3.72754337 29.28124871 3.72952813 31.13867109 3.73046875 32.99609375 C3.73765427 33.87945908 3.74483978 34.7628244 3.75224304 35.67295837 C3.72882139 41.89617861 3.72882139 41.89617861 1.5 44.125 C-1.125 43.75 -1.125 43.75 -3.5 43.125 C-3.52464574 37.16186834 -3.542834 31.19876605 -3.55493164 25.2355957 C-3.55997278 23.20531702 -3.56680557 21.17504198 -3.57543945 19.14477539 C-3.58751467 16.23322653 -3.59323034 13.3217255 -3.59765625 10.41015625 C-3.60281754 9.4966188 -3.60797882 8.58308136 -3.61329651 7.64186096 C-3.61349168 5.46924573 -3.56211805 3.29672704 -3.5 1.125 C-2.5 0.125 -2.5 0.125 0 0 Z " fill="#535A65" transform="translate(859.5,396.875)"/>
<path d="M0 0 C8.25 0 16.5 0 25 0 C25 0.33 25 0.66 25 1 C18.07 1 11.14 1 4 1 C4.01160156 4.15175781 4.02320313 7.30351562 4.03515625 10.55078125 C4.15969012 54.31132735 4.15969012 54.31132735 3 76 C2.67 76 2.34 76 2 76 C2 51.91 2 27.82 2 3 C-47.17 3 -96.34 3 -147 3 C-147 2.67 -147 2.34 -147 2 C-98.49 2 -49.98 2 0 2 C0 1.34 0 0.68 0 0 Z " fill="#555861" transform="translate(576,301)"/>
<path d="M0 0 C0 0.66 0 1.32 0 2 C-49.17 2 -98.34 2 -149 2 C-149 1.67 -149 1.34 -149 1 C-121.19845971 -0.14087476 -93.38348083 -0.32679757 -65.5625 -0.55761719 C-59.54289222 -0.6077163 -53.52337067 -0.6637713 -47.50384867 -0.72303832 C-41.65081991 -0.7804132 -35.79775303 -0.83216598 -29.94465256 -0.88163376 C-27.47338818 -0.90318783 -25.00213714 -0.92633336 -22.53090286 -0.9510994 C-19.11258172 -0.98477427 -15.69426908 -1.01204877 -12.27587891 -1.03759766 C-11.25800797 -1.04897263 -10.24013702 -1.0603476 -9.19142151 -1.07206726 C-8.26728958 -1.07766159 -7.34315765 -1.08325592 -6.39102173 -1.08901978 C-5.58637796 -1.09601709 -4.7817342 -1.10301441 -3.95270729 -1.11022377 C-2 -1 -2 -1 0 0 Z " fill="#AFAFB4" transform="translate(886,529)"/>
<path d="M0 0 C75.24 0.495 75.24 0.495 152 1 C152 1.33 152 1.66 152 2 C115.77234324 2.69530988 79.54469692 3.17934638 43.3125 3.5625 C42.26288589 3.5736018 41.21327179 3.5847036 40.1318512 3.59614182 C27.08793192 3.73382536 14.0439819 3.86838808 1 4 C0.67 2.68 0.34 1.36 0 0 Z " fill="#A7A8AE" transform="translate(578,604)"/>
<path d="M0 0 C0.33 0 0.66 0 1 0 C1 10.23 1 20.46 1 31 C42.085 31.495 42.085 31.495 84 32 C84 32.66 84 33.32 84 34 C56.28 34 28.56 34 0 34 C0 22.78 0 11.56 0 0 Z " fill="#464856" transform="translate(426,649)"/>
<path d="M0 0 C0.33 0 0.66 0 1 0 C1.33 13.86 1.66 27.72 2 42 C-21.1 42 -44.2 42 -68 42 C-64.4344604 39.6229736 -62.92128639 39.75659077 -58.69262695 39.77294922 C-56.74094353 39.77317581 -56.74094353 39.77317581 -54.74983215 39.77340698 C-53.32931363 39.78362031 -51.90879667 39.7940523 -50.48828125 39.8046875 C-49.03525487 39.80841817 -47.58222597 39.81126489 -46.12919617 39.81326294 C-42.30688518 39.82089519 -38.48472646 39.84054008 -34.66247559 39.8626709 C-30.07530616 39.88673739 -25.48808579 39.89591227 -20.90087128 39.90757751 C-13.93380833 39.92696482 -6.96707938 39.96528994 0 40 C0 26.8 0 13.6 0 0 Z " fill="#474958" transform="translate(1108,641)"/>
<path d="M0 0 C0.66 0.33 1.32 0.66 2 1 C2.33 18.16 2.66 35.32 3 53 C1.68 53.66 0.36 54.32 -1 55 C-1.33 55.66 -1.66 56.32 -2 57 C-1.89263934 49.71568154 -1.78003508 42.43146431 -1.66066074 35.14733219 C-1.60540198 31.76532878 -1.55197744 28.38331676 -1.50268555 25.0012207 C-1.44599054 21.11660573 -1.38142415 17.23214122 -1.31640625 13.34765625 C-1.29969376 12.12788589 -1.28298126 10.90811554 -1.26576233 9.65138245 C-1.24581711 8.53029587 -1.22587189 7.40920929 -1.20532227 6.25415039 C-1.18977798 5.26153702 -1.1742337 4.26892365 -1.15821838 3.24623108 C-1 1 -1 1 0 0 Z " fill="#F9C034" transform="translate(895,383)"/>
<path d="M0 0 C0 16.5 0 33 0 50 C-0.33 50 -0.66 50 -1 50 C-1.33 34.82 -1.66 19.64 -2 4 C-2.33 4 -2.66 4 -3 4 C-3.33 18.85 -3.66 33.7 -4 49 C-4.66 48.67 -5.32 48.34 -6 48 C-6 32.49 -6 16.98 -6 1 C-4 0 -4 0 0 0 Z " fill="#F8C84D" transform="translate(898,380)"/>
<path d="M0 0 C1.98 0 3.96 0 6 0 C6 1.32 6 2.64 6 4 C-9.51 4 -25.02 4 -41 4 C-41 3.67 -41 3.34 -41 3 C-27.47 3 -13.94 3 0 3 C0 2.01 0 1.02 0 0 Z " fill="#F4B421" transform="translate(864,453)"/>
<path d="M0 0 C0.33 0 0.66 0 1 0 C1.33 13.86 1.66 27.72 2 42 C0.35 42 -1.3 42 -3 42 C-2.67 41.34 -2.34 40.68 -2 40 C-1.34 40 -0.68 40 0 40 C0 26.8 0 13.6 0 0 Z " fill="#404450" transform="translate(1108,641)"/>
<path d="M0 0 C10.89 0 21.78 0 33 0 C28.26849018 2.36575491 25.17340161 1.98237665 20.01953125 1.78125 C18.27446289 1.71357422 18.27446289 1.71357422 16.49414062 1.64453125 C15.27919922 1.59683594 14.06425781 1.54914063 12.8125 1.5 C11.58595703 1.45230469 10.35941406 1.40460938 9.09570312 1.35546875 C6.06378159 1.23749515 3.03188202 1.1189842 0 1 C0 0.67 0 0.34 0 0 Z " fill="#484E59" transform="translate(704,301)"/>
<path d="M0 0 C9.9 0.33 19.8 0.66 30 1 C30 1.33 30 1.66 30 2 C20.76 2 11.52 2 2 2 C1.67 2.66 1.34 3.32 1 4 C0.67 2.68 0.34 1.36 0 0 Z " fill="#A1A2A8" transform="translate(578,604)"/>
<path d="M0 0 C0.66 0 1.32 0 2 0 C1.42655063 2.86724686 1.1385485 3.8614515 -1 6 C-1 5.01 -1 4.02 -1 3 C-7.6 3 -14.2 3 -21 3 C-21 2.67 -21 2.34 -21 2 C-20.39937744 1.97494385 -19.79875488 1.9498877 -19.17993164 1.92407227 C-16.47388563 1.8084472 -13.76821717 1.68557064 -11.0625 1.5625 C-10.11697266 1.52318359 -9.17144531 1.48386719 -8.19726562 1.44335938 C-7.29814453 1.40146484 -6.39902344 1.35957031 -5.47265625 1.31640625 C-4.64000244 1.27974854 -3.80734863 1.24309082 -2.94946289 1.20532227 C-0.99661142 1.20632897 -0.99661142 1.20632897 0 0 Z " fill="#B5B6BC" transform="translate(895,604)"/>
<path d="M0 0 C1.98 0 3.96 0 6 0 C6 1.32 6 2.64 6 4 C3.69 4 1.38 4 -1 4 C-0.67 2.68 -0.34 1.36 0 0 Z " fill="#F7B613" transform="translate(864,453)"/>
<path d="M0 0 C2.97 0 5.94 0 9 0 C8.67 0.99 8.34 1.98 8 3 C5.36 2.67 2.72 2.34 0 2 C0 1.34 0 0.68 0 0 Z " fill="#C9CBD2" transform="translate(872,454)"/>
<path d="M0 0 C3.63 0.66 7.26 1.32 11 2 C11 2.33 11 2.66 11 3 C5.06 3.495 5.06 3.495 -1 4 C-0.67 2.68 -0.34 1.36 0 0 Z " fill="#98989F" transform="translate(579,528)"/>
<path d="M0 0 C0.99 0 1.98 0 3 0 C3 1.98 3 3.96 3 6 C2.01 6.33 1.02 6.66 0 7 C0 4.69 0 2.38 0 0 Z " fill="#F9B827" transform="translate(894,431)"/>
</svg>
